<svg width="100" height="35" viewBox="0 0 100 35" fill="none" xmlns="http://www.w3.org/2000/svg">
  <path d="M7.96665 6.11491C8.49432 5.80514 9.29379 5.50904 10.3651 5.22964C11.4364 4.95025 12.5152 4.81055 13.6024 4.81055C15.1551 4.81055 16.5293 5.03604 17.7251 5.48627C18.9201 5.93649 19.6885 6.64334 20.0309 7.60529C20.5897 9.22018 21.1956 11.0985 21.8477 13.2411C22.4999 15.3836 23.1521 17.5961 23.8043 19.8791C24.4565 22.1613 25.0927 24.4132 25.7138 26.6332C26.3348 28.854 26.8784 30.8181 27.3438 32.5257C26.9711 32.9607 26.4123 33.3099 25.6667 33.5734C24.9211 33.8368 24.0366 33.9697 23.0116 33.9697C22.2661 33.9697 21.6374 33.9075 21.1249 33.7837C20.6125 33.6592 20.1934 33.4739 19.8677 33.2249C19.5412 32.9766 19.277 32.6509 19.0758 32.247C18.8738 31.8439 18.6954 31.3777 18.5398 30.85L17.7016 27.6362H9.27026C9.02123 28.5678 8.77296 29.5305 8.52469 30.5243C8.27566 31.5181 8.02739 32.4809 7.77912 33.4124C7.34408 33.5673 6.88626 33.6994 6.4049 33.808C5.92279 33.9166 5.34122 33.9712 4.65791 33.9712C3.07414 33.9712 1.90188 33.6987 1.14113 33.1558C0.379617 32.613 0 31.8598 0 30.8963C0 30.462 0.0622573 30.027 0.186013 29.592C0.309768 29.1577 0.449467 28.6452 0.60511 28.0545C0.822251 27.2163 1.12443 26.1762 1.51315 24.9341C1.90112 23.6927 2.32857 22.3489 2.79398 20.9048C3.25939 19.4607 3.75593 17.978 4.28436 16.4564C4.81203 14.9357 5.30933 13.4985 5.77474 12.1478C6.24091 10.7971 6.66684 9.59373 7.05557 8.53763C7.44354 7.48229 7.74647 6.67447 7.96361 6.11567L7.96665 6.11491ZM13.5561 12.1235C13.1211 13.4279 12.6321 14.8795 12.0885 16.4785C11.5449 18.0782 11.056 19.7007 10.6209 21.3459H16.3964C15.9614 19.6688 15.5188 18.0311 15.0693 16.4314C14.6183 14.8324 14.2076 13.3967 13.8348 12.1227H13.5554L13.5561 12.1235Z" fill="#F2631F"/>
  <path d="M70.9742 33.5695C70.6318 33.6629 70.0965 33.7555 69.3669 33.8489C68.6372 33.9423 67.9145 33.9886 67.2008 33.9886C66.4871 33.9886 65.8577 33.934 65.3141 33.8254C64.7705 33.7168 64.3126 33.5225 63.9399 33.2431C63.5671 32.9637 63.2877 32.5757 63.1017 32.0784C62.9157 31.5819 62.8223 30.9297 62.8223 30.1218V5.52872C63.1639 5.46722 63.7075 5.38142 64.4523 5.27285C65.1979 5.16428 65.9116 5.10962 66.5949 5.10962C67.2782 5.10962 67.938 5.16428 68.4816 5.27285C69.0245 5.38218 69.483 5.57579 69.8558 5.85519C70.2286 6.13459 70.508 6.52331 70.694 7.01985C70.8808 7.51715 70.9734 8.16933 70.9734 8.9764V33.5703L70.9742 33.5695Z" fill="#F2631F"/>
  <path d="M99.5806 32.7777C99.1455 33.2127 98.5169 33.546 97.6939 33.7791C96.8709 34.0122 95.8846 34.1283 94.7359 34.1283C93.5872 34.1283 92.4999 33.9575 91.4757 33.6158C90.4508 33.2742 89.6126 32.4512 88.9604 31.1468L84.3488 21.7376C83.8826 20.7757 83.4635 19.8669 83.0915 19.0127C82.7187 18.1593 82.3148 17.1731 81.8805 16.0547L81.6011 16.1011C81.7249 17.7782 81.7947 19.4857 81.8107 21.2251C81.8259 22.9645 81.8342 24.6721 81.8342 26.3492V33.5688C81.4926 33.6622 80.9725 33.7548 80.274 33.8482C79.5755 33.9416 78.8838 33.9879 78.2013 33.9879C77.5187 33.9879 76.9121 33.9416 76.3844 33.8482C75.856 33.7548 75.4217 33.5688 75.0801 33.2894C74.7377 33.01 74.4742 32.6304 74.2882 32.1482C74.1022 31.6669 74.0088 31.0382 74.0088 30.2615V6.97278C74.4431 6.35173 75.1104 5.88632 76.0117 5.57579C76.9121 5.26602 77.8748 5.10962 78.8998 5.10962C80.0485 5.10962 81.1433 5.2888 82.1835 5.64564C83.2236 6.00324 84.0542 6.8179 84.6753 8.09113L89.3332 17.5003C89.7994 18.463 90.2185 19.3718 90.5905 20.2252C90.9633 21.0794 91.3664 22.0648 91.8015 23.1832L92.0345 23.1369C91.91 21.4597 91.8326 19.7833 91.8015 18.1062C91.7703 16.4291 91.7551 14.7527 91.7551 13.0755V5.52872C92.0968 5.43533 92.6169 5.3427 93.3154 5.24932C94.0139 5.15593 94.7048 5.10962 95.3881 5.10962C96.7539 5.10962 97.7941 5.3503 98.5085 5.83165C99.2222 6.31377 99.5798 7.3152 99.5798 8.83594V32.7777H99.5806Z" fill="#F2631F"/>
  <path d="M37.0234 14.8849V8.85352C37.0234 4.51602 39.9473 1 43.5536 1C47.16 1 50.0838 4.51602 50.0838 8.85352V14.8849" stroke="#F2631F" stroke-width="0.379617" stroke-miterlimit="10"/>
  <path d="M40.1249 34.6127C33.4892 33.1087 28.8464 27.1039 28.8464 20.2996V12.5866C28.8464 11.6724 29.5874 10.9307 30.5023 10.9307H33.8133V20.3277C33.8133 24.751 36.7873 28.6717 41.0823 29.7301C47.5024 31.3131 53.2649 26.4707 53.2649 20.3072V10.9307H56.576C57.4901 10.9307 58.2319 11.6717 58.2319 12.5866V20.3072C58.2319 29.5228 49.7034 36.7841 40.1249 34.6127Z" fill="#F2631F"/>
  <path d="M36.9762 15.4126C37.5586 15.4126 38.0308 14.9405 38.0308 14.358C38.0308 13.7756 37.5586 13.3035 36.9762 13.3035C36.3938 13.3035 35.9216 13.7756 35.9216 14.358C35.9216 14.9405 36.3938 15.4126 36.9762 15.4126Z" fill="#F2631F"/>
  <path d="M50.2196 15.313C50.802 15.313 51.2742 14.8409 51.2742 14.2584C51.2742 13.676 50.802 13.2039 50.2196 13.2039C49.6372 13.2039 49.165 13.676 49.165 14.2584C49.165 14.8409 49.6372 15.313 50.2196 15.313Z" fill="#F2631F"/>
</svg> 